<svg width="260" height="73" viewBox="0 0 260 73" fill="none" xmlns="http://www.w3.org/2000/svg">
<path d="M99.682 55.8497C96.2766 55.8497 93.2691 55.1018 90.6594 53.606C88.0497 52.1102 86.0287 50.0574 84.5966 47.4477C83.1962 44.8062 82.4961 41.8305 82.4961 38.5206C82.4961 35.2744 83.1962 32.3305 84.5966 29.6889C86.0287 27.0474 88.0338 24.9787 90.6116 23.4829C93.1895 21.9553 96.1652 21.1915 99.5388 21.1915C105.045 21.1915 109.755 23.4033 113.669 27.8271L108.657 33.0784C107.543 31.6462 106.238 30.5641 104.742 29.8322C103.278 29.0683 101.719 28.6864 100.064 28.6864C98.2498 28.6864 96.6426 29.1002 95.2423 29.9276C93.8738 30.7551 92.8076 31.9167 92.0438 33.4126C91.28 34.9084 90.8981 36.611 90.8981 38.5206C90.8981 40.462 91.28 42.1806 92.0438 43.6764C92.8076 45.1404 93.8897 46.2861 95.29 47.1136C96.7222 47.941 98.3612 48.3548 100.207 48.3548C103.867 48.3548 106.922 46.8112 109.373 43.7241L114.386 48.9754C112.571 51.2986 110.391 53.0331 107.845 54.1789C105.299 55.2928 102.578 55.8497 99.682 55.8497ZM118.19 30.596H125.972V55.2291H118.19V30.596ZM117.331 23.2442C117.331 21.8757 117.761 20.7777 118.62 19.9502C119.511 19.1228 120.657 18.709 122.057 18.709C123.489 18.709 124.635 19.1228 125.494 19.9502C126.386 20.7777 126.831 21.8757 126.831 23.2442C126.831 24.6127 126.386 25.7266 125.494 26.5859C124.635 27.4134 123.489 27.8271 122.057 27.8271C120.657 27.8271 119.511 27.4134 118.62 26.5859C117.761 25.7266 117.331 24.6127 117.331 23.2442ZM132.083 30.596H139.196L139.292 33.9854C140.406 32.7124 141.615 31.7735 142.92 31.1688C144.225 30.5323 145.72 30.2141 147.407 30.2141C150.208 30.2141 152.436 31.1052 154.091 32.8874C155.746 34.6697 156.573 36.993 156.573 39.8573V55.2291H148.792V41.9578C148.792 38.7115 147.423 37.0884 144.686 37.0884C143.159 37.0884 141.965 37.5658 141.106 38.5206C140.278 39.4754 139.865 40.7643 139.865 42.3874V55.2291H132.083V30.596ZM174.892 55.8497C172.124 55.8497 169.689 55.3087 167.588 54.2266C165.488 53.1445 163.865 51.6328 162.719 49.6914C161.573 47.7501 161 45.5064 161 42.9603C161 40.4461 161.541 38.2023 162.624 36.2291C163.737 34.2559 165.297 32.7283 167.302 31.6462C169.307 30.5323 171.583 29.9754 174.129 29.9754C176.675 29.9754 178.934 30.5323 180.907 31.6462C182.881 32.7601 184.408 34.3037 185.49 36.2769C186.572 38.2501 187.114 40.4779 187.114 42.9603C187.114 43.7559 187.034 44.6789 186.875 45.7291H168.495C168.877 47.034 169.673 48.0683 170.882 48.8321C172.124 49.5641 173.651 49.9301 175.465 49.9301C178.17 49.9301 180.637 49.1186 182.865 47.4955L185.872 52.3648C184.472 53.4787 182.833 54.338 180.955 54.9427C179.078 55.5474 177.057 55.8497 174.892 55.8497ZM179.953 40.7643C179.634 39.3003 178.966 38.1387 177.948 37.2794C176.961 36.3883 175.704 35.9427 174.176 35.9427C172.681 35.9427 171.407 36.3883 170.357 37.2794C169.339 38.1387 168.686 39.3003 168.4 40.7643H179.953ZM200.02 34.6538V55.2291H191.904V21.8121H199.16L209.567 35.9904L220.022 21.8121H227.326V55.2291H219.163V34.6538L211.429 45.4427H207.753L200.02 34.6538ZM240.731 55.5633C238.185 55.5633 236.132 54.8631 234.572 53.4628C233.045 52.0306 232.281 50.1688 232.281 47.8774C232.281 45.2995 233.236 43.2785 235.145 41.8146C237.087 40.3506 239.728 39.6186 243.07 39.6186C244.979 39.6186 246.905 39.8732 248.846 40.3824V39.7618C248.846 38.4569 248.417 37.5022 247.557 36.8975C246.73 36.2928 245.393 35.9904 243.547 35.9904C242.306 35.9904 241.081 36.1496 239.871 36.4678C238.694 36.7543 237.341 37.2157 235.814 37.8522L233.952 32.4578C235.861 31.5985 237.612 30.9938 239.203 30.6437C240.826 30.2618 242.624 30.0708 244.598 30.0708C248.258 30.0708 251.074 30.9301 253.047 32.6487C255.021 34.3673 256.007 36.7861 256.007 39.905V55.2291H249.276L249.133 52.2216C248.114 53.24 246.857 54.0516 245.361 54.6563C243.897 55.261 242.354 55.5633 240.731 55.5633ZM239.776 47.4955C239.776 48.3548 240.062 49.0231 240.635 49.5005C241.208 49.946 242.036 50.1688 243.118 50.1688C244.709 50.1688 246.046 49.7233 247.128 48.8321C248.21 47.9092 248.814 46.7635 248.942 45.395C247.064 44.8539 245.441 44.5834 244.072 44.5834C242.672 44.5834 241.606 44.838 240.874 45.3472C240.142 45.8246 239.776 46.5407 239.776 47.4955Z" fill="white"/>
<rect x="2.90107" y="26.314" width="60.7916" height="9.87883" fill="white" stroke="#0F101C" stroke-width="1.94591"/>
<mask id="mask0_20_1094" style="mask-type:alpha" maskUnits="userSpaceOnUse" x="3" y="26" width="61" height="10">
<rect x="3.63069" y="27.1639" width="59.332" height="7.78365" fill="#D9D9D9" stroke="#C22525" stroke-width="0.486478"/>
</mask>
<g mask="url(#mask0_20_1094)">
<path d="M23.5768 26.9208H15.7465L10.4233 36.487H18.3017L23.5768 26.9208Z" fill="#0F101C"/>
<path d="M10.3889 36.5487L10.4233 36.487M10.4233 36.487L15.7465 26.9208H23.5768L18.3017 36.487H10.4233Z" stroke="#0F101C" stroke-width="0.486478"/>
<path d="M7.78924 26.9208H-0.0410876L-5.36434 36.487H2.51407L7.78924 26.9208Z" fill="#0F101C"/>
<path d="M-5.39868 36.5487L-5.36434 36.487M-5.36434 36.487L-0.0410877 26.9208H7.78924L2.51407 36.487H-5.36434Z" stroke="#0F101C" stroke-width="0.486478"/>
<path d="M55.1452 26.9208H47.3149L41.9916 36.487H49.87L55.1452 26.9208Z" fill="#0F101C"/>
<path d="M41.9573 36.5487L41.9916 36.487M41.9916 36.487L47.3149 26.9208H55.1452L49.87 36.487H41.9916Z" stroke="#0F101C" stroke-width="0.486478"/>
<path d="M70.9709 26.9208H63.1406L57.8173 36.487H65.6957L70.9709 26.9208Z" fill="#0F101C"/>
<path d="M57.783 36.5487L57.8173 36.487M57.8173 36.487L63.1406 26.9208H70.9709L65.6957 36.487H57.8173Z" stroke="#0F101C" stroke-width="0.486478"/>
<path d="M39.4023 26.9208H31.5719L26.2487 36.487H34.1271L39.4023 26.9208Z" fill="#0F101C"/>
<path d="M26.2144 36.5487L26.2487 36.487M26.2487 36.487L31.5719 26.9208H39.4023L34.1271 36.487H26.2487Z" stroke="#0F101C" stroke-width="0.486478"/>
</g>
<path d="M3.89699 25.2187L2.95702 25.4699L2.70584 24.5299L1.66258 20.6258C0.96896 18.0302 2.51088 15.3637 5.10654 14.67L54.4377 1.48772C57.0333 0.794106 59.6998 2.33602 60.3934 4.93169L61.4367 8.8358L61.6879 9.77577L60.7479 10.027L3.89699 25.2187Z" fill="white" stroke="#0F101C" stroke-width="1.94591"/>
<mask id="mask1_20_1094" style="mask-type:alpha" maskUnits="userSpaceOnUse" x="1" y="1" width="61" height="25">
<path d="M59.7506 4.41077C59.1957 2.33424 57.0625 1.10071 54.986 1.6556L4.71503 15.0891C2.63849 15.644 1.40496 17.7771 1.95985 19.8537L3.34867 25.0509L61.1394 9.60804L59.7506 4.41077Z" fill="#D9D9D9"/>
</mask>
<g mask="url(#mask1_20_1094)">
<path d="M39.0084 5.92514L46.5733 3.90364L54.4847 12.8903L46.8734 14.9242L39.0084 5.92514Z" fill="#0F101C"/>
<path d="M54.3773 1.81833L61.9422 -0.203172L69.8536 8.78345L62.2423 10.8174L54.3773 1.81833Z" fill="#0F101C"/>
<path d="M8.51011 14.0749L16.075 12.0534L23.9864 21.04L16.3751 23.074L8.51011 14.0749Z" fill="#0F101C"/>
<path d="M-6.77896 18.1605L0.785935 16.139L8.69738 25.1256L1.08604 27.1595L-6.77896 18.1605Z" fill="#0F101C"/>
<path d="M23.7196 10.0106L31.2845 7.98909L39.1959 16.9757L31.5846 19.0096L23.7196 10.0106Z" fill="#0F101C"/>
</g>
<path d="M3.87402 35.6772H2.90107V36.6501V57.0822C2.90107 62.9931 7.69274 67.7847 13.6036 67.7847H53.0083C58.9192 67.7847 63.7108 62.9931 63.7108 57.0822V36.6501V35.6772H62.7379H3.87402Z" fill="#0F101C" stroke="#0F101C" stroke-width="1.94591"/>
<line x1="10.4416" y1="41.7583" x2="55.6841" y2="41.7583" stroke="white" stroke-width="1.45943" stroke-linecap="round"/>
<line x1="10.4416" y1="49.0554" x2="55.6841" y2="49.0554" stroke="white" stroke-width="1.45943" stroke-linecap="round"/>
<line x1="10.4416" y1="56.3526" x2="45.4681" y2="56.3526" stroke="white" stroke-width="1.45943" stroke-linecap="round"/>
</svg>
